<?xml version="1.0" encoding="utf-8"?>
<!-- Generator: Adobe Illustrator 25.2.1, SVG Export Plug-In . SVG Version: 6.00 Build 0)  -->
<svg version="1.1" id="Layer_1" xmlns="http://www.w3.org/2000/svg" xmlns:xlink="http://www.w3.org/1999/xlink" x="0px" y="0px"
	 viewBox="0 0 960 540" style="enable-background:new 0 0 960 540;" xml:space="preserve">
<style type="text/css">
	.st0{fill:#011627;}
	.st1{enable-background:new    ;}
	.st2{fill:#D7DBE0;}
	.st3{fill:#D6DEEB;}
</style>
<g>
	
		<image style="overflow:visible;opacity:0.75;" width="937" height="417" xlink:href="DB708.png"  transform="matrix(1 0 0 1 15.4375 73.4)">
	</image>
	<g>
		<path class="st0" d="M868,430H92c-17.7,0-32-14.3-32-32V142c0-17.7,14.3-32,32-32h776c17.7,0,32,14.3,32,32v256
			C900,415.7,885.7,430,868,430z"/>
	</g>
</g>
<g>
	<g id="tokens" transform="translate(52.78125, 61.599999999999994)">
		<g class="st1">
			<path class="st2" d="M390.3,216.9c0,2.9-0.6,5.4-1.8,7.6c-1.2,2.2-2.8,4-4.9,5.4c-2.1,1.4-4.7,2.5-7.6,3.2
				c-3,0.7-6.2,1.1-9.8,1.1c-1.6,0-3.2-0.1-4.8-0.2s-3.1-0.3-4.6-0.5c-1.5-0.2-2.9-0.4-4.2-0.7c-1.3-0.2-2.5-0.5-3.5-0.8v-8
				c2.3,0.9,5,1.6,7.9,2.1c2.9,0.5,6.2,0.7,9.9,0.7c2.7,0,5-0.2,6.8-0.6c1.9-0.4,3.4-1,4.6-1.9s2.1-1.8,2.6-3
				c0.5-1.2,0.8-2.5,0.8-4.1c0-1.6-0.5-3.1-1.4-4.2c-0.9-1.2-2.1-2.2-3.6-3.1s-3.2-1.8-5.1-2.5c-1.9-0.8-3.9-1.5-5.9-2.4
				c-2-0.8-3.9-1.7-5.9-2.6c-1.9-0.9-3.6-2.1-5.1-3.4s-2.7-2.8-3.6-4.5s-1.4-3.8-1.4-6.2c0-2.1,0.4-4.1,1.3-6.2
				c0.9-2,2.2-3.8,4.1-5.4s4.2-2.8,7.1-3.8c2.9-1,6.3-1.4,10.3-1.4c1,0,2.1,0,3.3,0.1s2.4,0.2,3.6,0.4c1.2,0.2,2.4,0.4,3.6,0.6
				c1.2,0.2,2.3,0.5,3.3,0.7v7.5c-2.4-0.7-4.8-1.2-7.2-1.6c-2.4-0.4-4.7-0.5-6.9-0.5c-4.8,0-8.3,0.8-10.5,2.4
				c-2.2,1.6-3.4,3.7-3.4,6.4c0,1.6,0.5,3.1,1.4,4.2s2.1,2.2,3.6,3.2c1.5,0.9,3.2,1.8,5.1,2.5c1.9,0.8,3.9,1.5,5.9,2.4
				s3.9,1.7,5.9,2.7c1.9,1,3.6,2.1,5.1,3.4c1.5,1.3,2.7,2.9,3.6,4.6C389.8,212.3,390.3,214.4,390.3,216.9z"/>
			<path class="st2" d="M440.1,231.6c-2.1,0.8-4.3,1.4-6.5,1.8c-2.2,0.4-4.5,0.6-6.9,0.6c-7.4,0-13.1-2-17.1-6c-4-4-6-9.9-6-17.6
				c0-3.7,0.6-7.1,1.7-10.1c1.2-3,2.8-5.6,4.8-7.7c2.1-2.1,4.6-3.8,7.5-5c2.9-1.2,6.1-1.7,9.6-1.7c2.4,0,4.7,0.2,6.8,0.5
				s4.1,0.9,6.1,1.7v7.7c-2-1.1-4.1-1.8-6.2-2.3c-2.1-0.5-4.3-0.7-6.5-0.7c-2.1,0-4,0.4-5.9,1.2c-1.8,0.8-3.5,1.9-4.9,3.4
				c-1.4,1.5-2.5,3.3-3.3,5.5s-1.2,4.6-1.2,7.3c0,5.7,1.4,9.9,4.1,12.7c2.8,2.8,6.6,4.2,11.4,4.2c2.2,0,4.3-0.2,6.4-0.7
				c2.1-0.5,4.1-1.2,6-2.2V231.6z"/>
			<path class="st2" d="M486.3,233.4l-0.2-6.3c-2.5,2.5-5.1,4.3-7.8,5.5s-5.4,1.7-8.3,1.7c-2.7,0-5-0.3-6.9-1
				c-1.9-0.7-3.5-1.6-4.7-2.8c-1.2-1.2-2.1-2.6-2.7-4.2c-0.6-1.6-0.9-3.4-0.9-5.3c0-4.7,1.7-8.4,5.2-11c3.5-2.7,8.7-4,15.5-4h9.7
				v-4.1c0-2.8-0.9-5-2.7-6.6c-1.8-1.7-4.5-2.5-8.1-2.5c-2.6,0-5.2,0.3-7.8,0.9c-2.6,0.6-5.2,1.4-7.9,2.5v-7.3
				c1-0.4,2.2-0.7,3.4-1.1c1.3-0.4,2.6-0.7,4-1c1.4-0.3,2.9-0.5,4.4-0.7c1.5-0.2,3.1-0.3,4.6-0.3c2.8,0,5.4,0.3,7.6,0.9
				c2.3,0.6,4.2,1.6,5.8,2.8c1.6,1.3,2.8,2.9,3.6,4.8c0.8,1.9,1.3,4.2,1.3,6.8v32.3H486.3z M485.4,212.1h-10.3c-2,0-3.8,0.2-5.2,0.6
				c-1.5,0.4-2.7,1-3.6,1.7c-0.9,0.7-1.6,1.6-2.1,2.7c-0.5,1-0.7,2.2-0.7,3.5c0,0.9,0.1,1.8,0.4,2.6s0.7,1.6,1.4,2.2
				c0.6,0.6,1.4,1.1,2.4,1.5c1,0.4,2.2,0.6,3.6,0.6c1.9,0,4-0.6,6.4-1.7c2.4-1.1,5-2.9,7.6-5.4V212.1z"/>
			<path class="st2" d="M510.7,186.6h7.4l0.2,8.6c2.8-3.3,5.5-5.7,8.2-7.2s5.4-2.2,8.1-2.2c4.8,0,8.5,1.6,11,4.7
				c2.5,3.1,3.7,7.8,3.5,14h-8.2c0.1-4.1-0.5-7.1-1.8-8.9c-1.3-1.8-3.2-2.8-5.7-2.8c-1.1,0-2.2,0.2-3.3,0.6c-1.1,0.4-2.2,1-3.4,1.9
				c-1.2,0.9-2.4,2-3.7,3.3c-1.3,1.3-2.7,3-4.2,4.8v30.1h-8.2V186.6z"/>
			<path class="st2" d="M601.3,209.1c0,3.9-0.5,7.4-1.6,10.4s-2.6,5.7-4.6,7.8c-2,2.1-4.4,3.8-7.2,4.9c-2.8,1.1-6,1.7-9.6,1.7
				c-2.8,0-5.6-0.3-8.5-0.8c-2.9-0.5-5.8-1.4-8.6-2.5v-63.1h8.1v18.1l-0.4,8.7c2.3-3.1,4.8-5.4,7.5-6.6c2.7-1.3,5.5-1.9,8.6-1.9
				c2.7,0,5,0.6,7,1.7c2,1.1,3.7,2.7,5.1,4.7s2.4,4.5,3.1,7.4C600.9,202.4,601.3,205.6,601.3,209.1z M593,209.5
				c0-2.5-0.2-4.7-0.5-6.8c-0.4-2.1-0.9-3.8-1.7-5.3s-1.8-2.6-3-3.4c-1.2-0.8-2.7-1.2-4.3-1.2c-1,0-2.1,0.2-3.1,0.5
				c-1.1,0.3-2.2,0.9-3.3,1.6s-2.3,1.8-3.6,3c-1.3,1.3-2.6,2.8-4,4.7v22.7c1.6,0.6,3.2,1.1,4.8,1.5c1.6,0.4,3.2,0.5,4.7,0.5
				c1.9,0,3.6-0.3,5.3-0.9c1.7-0.6,3.2-1.6,4.5-3c1.3-1.4,2.3-3.2,3.1-5.5C592.6,215.7,593,212.9,593,209.5z"/>
			<path class="st2" d="M654.5,209.6c0,3.6-0.5,7-1.5,10c-1,3-2.5,5.6-4.4,7.8c-1.9,2.2-4.3,3.8-7,5c-2.8,1.2-5.9,1.8-9.4,1.8
				c-3.4,0-6.4-0.5-9-1.6c-2.7-1-4.9-2.6-6.8-4.6s-3.3-4.5-4.2-7.5c-1-3-1.5-6.4-1.5-10.3c0-3.6,0.5-7,1.5-10c1-3,2.5-5.6,4.4-7.7
				c1.9-2.2,4.3-3.8,7-5s5.9-1.8,9.4-1.8c3.4,0,6.4,0.5,9,1.6c2.7,1,4.9,2.6,6.8,4.6c1.8,2,3.3,4.5,4.2,7.5S654.5,205.7,654.5,209.6
				z M646.2,210c0-2.9-0.3-5.4-1-7.6c-0.6-2.2-1.5-4-2.7-5.4c-1.2-1.4-2.6-2.5-4.3-3.3c-1.7-0.7-3.6-1.1-5.7-1.1
				c-2.4,0-4.5,0.5-6.2,1.4c-1.7,0.9-3.1,2.2-4.2,3.8c-1.1,1.6-1.9,3.4-2.4,5.5c-0.5,2.1-0.8,4.3-0.8,6.6c0,2.9,0.3,5.4,1,7.6
				s1.5,4,2.7,5.4c1.2,1.4,2.6,2.5,4.3,3.3c1.7,0.7,3.6,1.1,5.7,1.1c2.4,0,4.5-0.5,6.2-1.4c1.7-0.9,3.1-2.2,4.2-3.8
				c1.1-1.6,1.9-3.4,2.4-5.5C645.9,214.5,646.2,212.3,646.2,210z"/>
			<path class="st2" d="M666.3,186.6h7.2l0.3,7.6c1.4-1.6,2.7-3,4-4c1.3-1.1,2.5-1.9,3.8-2.6s2.5-1.1,3.8-1.4c1.3-0.3,2.6-0.4,4-0.4
				c4.8,0,8.5,1.4,10.9,4.3c2.5,2.8,3.7,7.1,3.7,12.8v30.5h-8.1v-29.9c0-3.7-0.7-6.4-2.1-8.1c-1.4-1.8-3.4-2.6-6.1-2.6
				c-1,0-2,0.1-2.9,0.4c-0.9,0.3-1.9,0.8-3,1.5c-1,0.7-2.1,1.7-3.3,3c-1.2,1.2-2.5,2.8-4,4.7v31.1h-8.1V186.6z"/>
		</g>
		<g class="st1">
			<path class="st3" d="M722.9,242.9c1.6,0.1,3.1-0.1,4.6-0.4s2.8-0.8,3.9-1.5c1.1-0.7,2-1.5,2.7-2.5c0.7-1,1-2.1,1-3.4
				c0-1.3-0.2-2.4-0.7-3.2c-0.5-0.8-1-1.6-1.5-2.2s-1.1-1.4-1.5-2.2c-0.5-0.8-0.7-1.8-0.7-3.1c0-0.7,0.1-1.3,0.4-2.1
				c0.2-0.7,0.6-1.4,1.1-2s1.2-1.1,2-1.4c0.8-0.4,1.7-0.6,2.8-0.6c1.1,0,2.1,0.2,3.1,0.7c1,0.5,1.9,1.1,2.7,2.1
				c0.8,0.9,1.4,2.1,1.8,3.5c0.5,1.4,0.7,3,0.7,4.9c0,2.6-0.5,5.1-1.4,7.4c-0.9,2.4-2.4,4.5-4.2,6.3c-1.9,1.8-4.2,3.3-7,4.4
				c-2.8,1.1-6.1,1.6-9.8,1.6V242.9z M737.5,185.7c1,0,1.9,0.2,2.8,0.6c0.9,0.4,1.6,0.9,2.3,1.6s1.2,1.4,1.6,2.3
				c0.4,0.9,0.6,1.8,0.6,2.8c0,1-0.2,1.9-0.6,2.8s-0.9,1.6-1.6,2.3s-1.4,1.2-2.3,1.5c-0.9,0.4-1.8,0.6-2.8,0.6c-1,0-1.9-0.2-2.8-0.6
				s-1.6-0.9-2.3-1.5s-1.2-1.4-1.5-2.3s-0.6-1.8-0.6-2.8c0-1,0.2-1.9,0.6-2.8c0.4-0.9,0.9-1.6,1.5-2.3s1.4-1.2,2.3-1.6
				C735.6,185.9,736.5,185.7,737.5,185.7z"/>
		</g>
	</g>
	<g>
		<path class="st2" d="M329.9,228v-16.8c0-9.3-7.5-16.8-16.8-16.8H178.6c-9.3,0-16.8,7.5-16.8,16.8V228H329.9z M212.2,202.8
			c4.6,0,8.4,3.8,8.4,8.4c0,4.6-3.8,8.4-8.4,8.4c-4.6,0-8.4-3.8-8.4-8.4C203.8,206.5,207.5,202.8,212.2,202.8z M187,202.8
			c4.6,0,8.4,3.8,8.4,8.4c0,4.6-3.8,8.4-8.4,8.4c-4.6,0-8.4-3.8-8.4-8.4C178.6,206.5,182.3,202.8,187,202.8z"/>
		<path class="st2" d="M161.7,236.4v92.4c0,9.3,7.5,16.8,16.8,16.8H313c9.3,0,16.8-7.5,16.8-16.8v-92.4H161.7z M221.7,279.8
			L221.7,279.8l-11.4,11.3l11.3,11.3v18.9l-30.2-30.2l30.3-30.3V279.8z M243.2,327.8l-14.1-4.4l21.5-69.1l14.1,4.4L243.2,327.8z
			 M270,321.3v-18.9l11.3-11.4L270,279.8v-19l30.2,30.3L270,321.3z"/>
	</g>
</g>
</svg>
